<svg width="40" height="40" viewBox="0 0 40 40" fill="none" xmlns="http://www.w3.org/2000/svg">
  <rect width="40" height="40" rx="8" fill="#16A34A"/>
  <path d="M12 20H28M16 16H16.01M24 16H24.01M16 24H16.01M24 24H24.01M16.5 16C16.5 16.2761 16.2761 16.5 16 16.5C15.7239 16.5 15.5 16.2761 15.5 16C15.5 15.7239 15.7239 15.5 16 15.5C16.2761 15.5 16.5 15.7239 16.5 16ZM24.5 16C24.5 16.2761 24.2761 16.5 24 16.5C23.7239 16.5 23.5 16.2761 23.5 16C23.5 15.7239 23.7239 15.5 24 15.5C24.2761 15.5 24.5 15.7239 24.5 16ZM16.5 24C16.5 24.2761 16.2761 24.5 16 24.5C15.7239 24.5 15.5 24.2761 15.5 24C15.5 23.7239 15.7239 23.5 16 23.5C16.2761 23.5 16.5 23.7239 16.5 24ZM24.5 24C24.5 24.2761 24.2761 24.5 24 24.5C23.7239 24.5 23.5 24.2761 23.5 24C23.5 23.7239 23.7239 23.5 24 23.5C24.2761 23.5 24.5 23.7239 24.5 24Z" stroke="white" stroke-width="2" stroke-linecap="round" stroke-linejoin="round"/>
</svg> 